<?xml version="1.0" encoding="UTF-8" standalone="no"?>
<svg
   xmlns:dc="http://purl.org/dc/elements/1.1/"
   xmlns:cc="http://creativecommons.org/ns#"
   xmlns:rdf="http://www.w3.org/1999/02/22-rdf-syntax-ns#"
   xmlns:svg="http://www.w3.org/2000/svg"
   xmlns="http://www.w3.org/2000/svg"
   viewBox="0 0 2560 2400"
   height="2400"
   width="2560"
   xml:space="preserve"
   id="svg2"
   version="1.1"><metadata
     id="metadata8"><rdf:RDF><cc:Work
         rdf:about=""><dc:format>image/svg+xml</dc:format><dc:type
           rdf:resource="http://purl.org/dc/dcmitype/StillImage" /></cc:Work></rdf:RDF></metadata><defs
     id="defs6"><clipPath
       id="clipPath18"
       clipPathUnits="userSpaceOnUse"><path
         id="path16"
         d="M 0,1800 H 1920 V 0 H 0 Z" /></clipPath></defs><g
     transform="matrix(1.3333333,0,0,-1.3333333,0,2400)"
     id="g10"><g
       id="g12"><g
         clip-path="url(#clipPath18)"
         id="g14"><g
           transform="translate(575.8761,773.5177)"
           id="g20"><path
             id="path22"
             style="fill:#FFFFFF;fill-opacity:1;fill-rule:nonzero;stroke:none"
             d="m 0,0 h -3.869 c -7.419,0 -13.432,6.015 -13.432,13.433 V 116.062 H -139.059 V 13.433 C -139.059,6.015 -145.072,0 -152.491,0 h -3.869 c -7.419,0 -13.432,6.015 -13.432,13.433 v 225.674 c 0,7.417 6.013,13.432 13.432,13.432 h 3.869 c 7.419,0 13.432,-6.015 13.432,-13.432 v -92.314 h 121.758 v 92.314 c 0,7.417 6.013,13.432 13.432,13.432 H 0 c 7.42,0 13.432,-6.015 13.432,-13.432 V 13.433 C 13.432,6.015 7.42,0 0,0" /></g><path
           id="path24"
           style="fill:#FFFFFF;fill-opacity:1;fill-rule:nonzero;stroke:none"
           d="m 1512.084,724.576 h -1.216 V 653.87 h 1.216 z m -85.931,-70.706 v 69.492 h 25.343 v 1.214 h -52.211 v -1.214 h 25.649 V 653.87 Z m -122.432,69.492 h 18.554 0.708 c 2.57,0 5.002,-0.488 7.3,-1.463 2.298,-0.977 4.308,-2.325 6.033,-4.042 1.724,-1.717 3.075,-3.702 4.054,-5.959 0.979,-2.256 1.47,-4.696 1.47,-7.322 0,-2.628 -0.491,-5.085 -1.47,-7.373 -0.979,-2.291 -2.33,-4.294 -4.054,-6.01 -1.725,-1.717 -3.735,-3.065 -6.033,-4.04 -2.298,-0.979 -4.73,-1.465 -7.3,-1.465 h -1.419 -17.843 z m 37.765,-11.01 c -1.048,2.426 -2.484,4.546 -4.308,6.365 -1.824,1.817 -3.954,3.248 -6.387,4.294 -2.435,1.042 -5.036,1.565 -7.808,1.565 h -20.478 V 653.87 h 1.216 v 30.606 h 19.262 l 17.438,-30.606 h 1.419 l -17.438,30.706 c 2.638,0.203 5.085,0.858 7.352,1.969 2.264,1.111 4.222,2.559 5.881,4.345 1.653,1.783 2.972,3.854 3.954,6.21 0.977,2.357 1.47,4.848 1.47,7.476 0,2.76 -0.525,5.354 -1.573,7.776 m -111.432,-32.321 h -33.048 l 16.421,43.634 z m -33.456,-1.111 h 33.862 l 9.53,-25.151 h 1.318 l -26.967,71.11 h -1.724 l -26.865,-71.11 h 1.419 z m -114.421,-23.736 h -39.033 v 35.049 h 25.041 v 1.211 h -25.041 v 31.918 h 39.135 v 1.214 h -40.454 V 653.97 h 40.352 z M 947.58,724.576 h -1.216 V 653.87 h 36.295 v 1.211 H 947.58 Z m -95.158,0 h -1.217 V 653.87 H 887.5 v 1.211 h -35.078 z m -60.181,-69.392 h -39.032 v 35.049 h 25.041 v 1.211 h -25.041 v 31.918 h 39.133 v 1.214 H 751.89 V 653.97 h 40.351 z m -151.934,-0.103 v 35.152 h 29.097 c 2.296,0 4.443,-0.455 6.438,-1.363 1.991,-0.911 3.749,-2.174 5.271,-3.788 1.521,-1.617 2.72,-3.502 3.6,-5.656 0.876,-2.157 1.316,-4.445 1.316,-6.871 0,-2.422 -0.44,-4.696 -1.316,-6.816 -0.88,-2.122 -2.079,-3.976 -3.6,-5.556 -1.522,-1.583 -3.28,-2.828 -5.271,-3.737 -1.995,-0.911 -4.142,-1.365 -6.438,-1.365 z m 0,68.384 h 26.562 c 2.093,0 4.072,-0.423 5.93,-1.263 1.859,-0.842 3.498,-1.988 4.917,-3.434 1.421,-1.45 2.535,-3.15 3.345,-5.102 0.811,-1.953 1.219,-4.039 1.219,-6.262 0,-2.222 -0.408,-4.293 -1.219,-6.213 -0.81,-1.919 -1.924,-3.585 -3.345,-4.999 -1.419,-1.414 -3.058,-2.543 -4.917,-3.383 -1.858,-0.845 -3.837,-1.262 -5.93,-1.262 h -26.562 z m 41.871,-9.293 c -0.88,2.086 -2.064,3.922 -3.549,5.505 -1.487,1.58 -3.229,2.811 -5.222,3.685 -1.993,0.875 -4.139,1.314 -6.438,1.314 H 639.091 V 653.87 h 30.414 c 2.432,0 4.73,0.488 6.894,1.465 2.162,0.974 4.054,2.306 5.676,3.988 1.624,1.683 2.906,3.671 3.854,5.959 0.945,2.289 1.419,4.714 1.419,7.273 0,2.357 -0.388,4.58 -1.165,6.668 -0.779,2.086 -1.824,3.954 -3.143,5.605 -1.319,1.651 -2.889,3.031 -4.714,4.142 -1.827,1.111 -3.788,1.868 -5.881,2.274 3.243,1.143 5.896,3.18 7.959,6.11 2.059,2.929 3.092,6.277 3.092,10.05 0,2.423 -0.442,4.68 -1.318,6.768 M 524.16,724.576 h -1.216 V 653.87 h 1.216 z m -115.029,-1.214 h 18.046 c 4.259,0 8.245,-0.891 11.962,-2.676 3.717,-1.783 6.96,-4.226 9.735,-7.322 2.769,-3.1 4.967,-6.717 6.589,-10.859 1.622,-4.142 2.433,-8.57 2.433,-13.283 0,-4.646 -0.797,-9.039 -2.382,-13.181 -1.59,-4.142 -3.751,-7.745 -6.489,-10.807 -2.738,-3.066 -5.949,-5.505 -9.632,-7.325 -3.686,-1.817 -7.62,-2.762 -11.811,-2.828 h -18.451 z m 17.843,-69.492 c 4.462,0 8.65,0.925 12.57,2.776 3.92,1.852 7.352,4.377 10.292,7.576 2.941,3.197 5.253,6.954 6.943,11.264 1.691,4.308 2.536,8.888 2.536,13.736 0,4.85 -0.845,9.427 -2.536,13.737 -1.69,4.309 -3.988,8.065 -6.892,11.264 -2.908,3.197 -6.32,5.723 -10.24,7.574 -3.92,1.851 -8.077,2.779 -12.47,2.779 H 407.914 V 653.87 Z" /><g
           transform="translate(1241.3093,651.9377)"
           id="g26"><path
             id="path28"
             style="fill:#FFFFFF;fill-opacity:1;fill-rule:nonzero;stroke:none"
             d="m 0,0 h -1.319 l -1.712,1.182 -9.083,23.969 H -43.441 L -52.424,1.187 -54.138,0 h -1.419 l -1.712,2.479 26.865,71.107 1.712,1.184 h 1.724 L -25.256,73.588 1.712,2.481 Z m -41.658,29.925 h 27.747 l -13.96,36.63 z M 270.776,0.1 h -1.217 l -1.831,1.832 v 70.704 l 1.831,1.832 h 1.217 l 1.831,-1.832 V 1.932 Z m -85.932,0 h -1.219 l -1.832,1.832 V 69.59 h -23.817 l -1.831,1.832 v 1.214 l 1.831,1.832 h 52.211 l 1.832,-1.832 V 71.422 L 210.187,69.59 H 186.676 V 1.932 Z m -84.313,0 H 99.113 L 97.523,1.026 80.61,30.704 H 64.244 V 1.932 L 62.412,0.1 h -1.216 l -1.832,1.832 v 70.704 l 1.832,1.832 h 20.476 c 3.007,0 5.876,-0.577 8.531,-1.712 2.638,-1.134 4.98,-2.707 6.958,-4.68 1.986,-1.978 3.563,-4.313 4.697,-6.938 1.145,-2.643 1.724,-5.503 1.724,-8.5 0,-2.847 -0.54,-5.6 -1.612,-8.179 -1.06,-2.547 -2.506,-4.818 -4.303,-6.755 -1.805,-1.942 -3.964,-3.539 -6.414,-4.74 -1.648,-0.809 -3.402,-1.4 -5.234,-1.771 L 102.126,2.836 Z M 64.244,35.579 h 17.428 c 2.318,0 4.531,0.445 6.585,1.319 2.071,0.879 3.905,2.108 5.456,3.654 1.551,1.541 2.784,3.37 3.663,5.431 0.877,2.052 1.324,4.291 1.324,6.655 0,2.36 -0.442,4.577 -1.319,6.592 -0.879,2.03 -2.113,3.842 -3.668,5.39 -1.549,1.544 -3.385,2.775 -5.456,3.654 -2.054,0.872 -4.269,1.316 -6.585,1.316 H 64.244 Z M -258.65,0.1 h -36.295 l -1.831,1.832 v 70.704 l 1.831,1.832 h 1.217 l 1.831,-1.832 V 4.973 h 33.247 l 1.832,-1.832 V 1.932 Z m -95.158,0 h -36.295 l -1.832,1.832 v 70.704 l 1.832,1.832 h 1.216 l 1.832,-1.832 V 4.973 h 33.247 l 1.831,-1.832 V 1.932 Z m -217.996,0 h -30.414 l -1.831,1.832 v 70.804 l 1.831,1.832 h 27.879 c 2.542,0 4.955,-0.494 7.173,-1.468 2.208,-0.967 4.166,-2.347 5.82,-4.108 1.629,-1.734 2.94,-3.768 3.903,-6.049 V 62.94 c 0.972,-2.308 1.463,-4.821 1.463,-7.473 0,-4.133 -1.153,-7.872 -3.425,-11.105 -1.331,-1.886 -2.896,-3.449 -4.684,-4.675 0.704,-0.322 1.392,-0.686 2.059,-1.092 1.995,-1.213 3.744,-2.747 5.192,-4.562 1.429,-1.788 2.582,-3.841 3.427,-6.106 0.852,-2.285 1.282,-4.745 1.282,-7.312 0,-2.786 -0.525,-5.47 -1.558,-7.969 -1.033,-2.498 -2.455,-4.696 -4.228,-6.533 -1.778,-1.844 -3.878,-3.319 -6.242,-4.386 -2.386,-1.077 -4.96,-1.627 -7.647,-1.627 m -27.366,4.873 h 27.266 c 2.022,0 3.929,0.402 5.676,1.201 1.775,0.808 3.36,1.934 4.711,3.341 1.353,1.404 2.437,3.08 3.229,4.985 0.781,1.888 1.177,3.947 1.177,6.115 0,2.174 -0.398,4.255 -1.182,6.184 -0.789,1.932 -1.878,3.646 -3.236,5.09 -1.353,1.434 -2.934,2.567 -4.699,3.373 -1.747,0.798 -3.656,1.201 -5.676,1.201 h -27.266 z m 0,36.468 h 24.731 c 1.829,0 3.568,0.368 5.173,1.096 1.646,0.745 3.118,1.759 4.381,3.012 1.243,1.238 2.235,2.725 2.95,4.418 0.713,1.685 1.075,3.536 1.075,5.5 0,1.963 -0.362,3.834 -1.08,5.558 -0.718,1.727 -1.714,3.249 -2.962,4.521 -1.253,1.28 -2.721,2.306 -4.364,3.048 -1.612,0.73 -3.354,1.099 -5.173,1.099 H -599.17 Z M -717.149,0.1 h -1.216 l -1.832,1.832 v 70.704 l 1.832,1.832 h 1.216 l 1.832,-1.832 V 1.932 Z m -97.186,0 h -19.059 l -1.832,1.832 v 70.704 l 1.832,1.832 h 19.262 c 4.643,0 9.102,-0.994 13.252,-2.956 4.115,-1.941 7.752,-4.63 10.812,-7.993 3.045,-3.356 5.48,-7.334 7.244,-11.831 1.765,-4.503 2.662,-9.351 2.662,-14.404 0,-5.058 -0.897,-9.904 -2.662,-14.407 -1.766,-4.506 -4.223,-8.485 -7.3,-11.835 -3.087,-3.359 -6.741,-6.045 -10.859,-7.992 -4.147,-1.958 -8.641,-2.95 -13.352,-2.95 m -16.011,4.873 h 16.619 c 3.864,0.061 7.574,0.95 11,2.64 3.459,1.707 6.514,4.032 9.076,6.902 2.574,2.879 4.643,6.325 6.147,10.242 1.5,3.918 2.259,8.136 2.259,12.527 0,4.462 -0.776,8.707 -2.305,12.614 -1.534,3.913 -3.637,7.381 -6.25,10.304 -2.604,2.909 -5.686,5.227 -9.161,6.892 -3.446,1.656 -7.205,2.496 -11.171,2.496 h -16.214 z M -159.132,0.2 h -40.351 l -1.832,1.832 v 70.604 l 1.832,1.832 h 40.454 l 1.831,-1.832 v -1.214 l -1.831,-1.832 h -37.304 V 41.338 h 23.209 l 1.832,-1.832 v -1.211 l -1.832,-1.832 h -23.209 V 5.075 h 37.201 L -157.3,3.243 V 2.032 Z m -289.935,0 h -40.352 l -1.831,1.832 v 70.604 l 1.831,1.832 h 40.452 l 1.832,-1.832 v -1.214 l -1.832,-1.832 h -37.301 V 41.338 h 23.209 l 1.832,-1.832 v -1.211 l -1.832,-1.832 h -23.209 V 5.075 h 37.201 l 1.832,-1.832 V 2.032 Z" /></g><g
           transform="translate(1500.8976,1101.6497)"
           id="g30"><path
             id="path32"
             style="fill:#FFFFFF;fill-opacity:1;fill-rule:nonzero;stroke:none"
             d="m 0,0 h -32.854 l 16.327,43.375 z M -33.256,-1.106 H 0.403 l 9.474,-25.002 h 1.311 l -26.809,70.689 h -1.712 l -26.709,-70.689 h 1.412 z m -76.747,45.385 h -1.209 v -70.286 h 1.209 z m -101.941,0 h -1.208 v -70.287 h 36.079 v 1.207 h -34.871 z m -75.234,-47.593 c 0,-2.946 -0.589,-5.722 -1.763,-8.333 -1.178,-2.611 -2.789,-4.887 -4.839,-6.829 -2.049,-1.941 -4.435,-3.483 -7.155,-4.618 -2.721,-1.141 -5.627,-1.707 -8.717,-1.707 -3.092,0 -5.998,0.566 -8.719,1.707 -2.721,1.135 -5.09,2.677 -7.104,4.618 -2.015,1.942 -3.596,4.218 -4.736,6.829 -1.145,2.611 -1.715,5.387 -1.715,8.333 v 47.593 h -1.208 V -3.314 c 0,-3.148 0.62,-6.091 1.863,-8.836 1.243,-2.746 2.923,-5.139 5.041,-7.181 2.115,-2.041 4.601,-3.663 7.456,-4.867 2.855,-1.207 5.896,-1.81 9.122,-1.81 3.224,0 6.265,0.603 9.12,1.81 2.855,1.204 5.375,2.826 7.558,4.867 2.184,2.042 3.896,4.435 5.141,7.181 1.241,2.745 1.864,5.688 1.864,8.836 v 47.593 h -1.209 z m -116.555,47.593 h -1.209 v -70.286 h 1.209 z m -84.506,-67.373 c 4.098,2.142 7.659,5.019 10.683,8.633 V 9.84 h -22.677 V 8.633 h 21.468 v -22.591 c -2.824,-3.414 -6.199,-6.125 -10.128,-8.132 -3.932,-2.008 -8.148,-3.014 -12.649,-3.014 -4.232,0 -8.23,0.906 -11.994,2.713 -3.763,1.807 -7.039,4.25 -9.825,7.329 -2.789,3.078 -4.99,6.692 -6.602,10.844 -1.612,4.15 -2.418,8.568 -2.418,13.254 0,4.753 0.806,9.203 2.418,13.355 1.612,4.149 3.813,7.781 6.602,10.895 2.786,3.111 6.062,5.571 9.825,7.378 3.764,1.807 7.762,2.711 11.994,2.711 4.567,0 8.851,-1.038 12.849,-3.112 3.998,-2.075 7.473,-4.921 10.431,-8.535 l 0.806,0.903 c -3.024,3.681 -6.602,6.594 -10.731,8.736 -4.133,2.142 -8.585,3.214 -13.355,3.214 -4.435,0 -8.602,-0.937 -12.497,-2.811 -3.898,-1.875 -7.307,-4.418 -10.228,-7.632 -2.924,-3.214 -5.227,-6.977 -6.905,-11.295 -1.68,-4.318 -2.52,-8.922 -2.52,-13.807 0,-4.887 0.84,-9.473 2.52,-13.757 1.678,-4.284 3.981,-8.033 6.905,-11.244 2.921,-3.214 6.33,-5.742 10.228,-7.581 3.895,-1.842 8.062,-2.762 12.497,-2.762 4.77,0 9.205,1.069 13.303,3.214 M -605.197,0 h -32.854 l 16.327,43.375 z m -33.259,-1.106 h 33.662 l 9.473,-25.002 h 1.312 l -26.809,70.689 h -1.715 l -26.706,-70.689 h 1.412 z m -85.715,-24.902 v 69.082 h 25.195 v 1.205 h -51.901 v -1.205 h 25.498 v -69.082 z m -139.532,68.179 45.956,-68.179 h 1.209 v 70.287 h -1.209 v -68.177 l -45.956,68.177 h -1.209 v -70.287 h 1.209 z M -944.279,0 h -32.853 l 16.326,43.375 z m -33.256,-1.106 h 33.659 l 9.474,-25.002 h 1.311 l -26.808,70.689 h -1.712 l -26.709,-70.689 h 1.411 z m -97.508,12.954 c -1.815,0.266 -3.612,0.803 -5.393,1.606 -1.78,0.804 -3.375,1.84 -4.787,3.112 -1.411,1.272 -2.554,2.777 -3.426,4.518 -0.875,1.742 -1.309,3.749 -1.309,6.025 0,2.477 0.469,4.702 1.409,6.677 0.94,1.974 2.252,3.666 3.932,5.071 1.678,1.406 3.693,2.493 6.047,3.265 2.35,0.767 4.938,1.153 7.759,1.153 3.226,0 6.213,-0.501 8.971,-1.505 2.752,-1.006 5.104,-2.479 7.053,-4.418 l 0.806,0.804 c -2.149,2.139 -4.635,3.729 -7.456,4.767 -2.824,1.038 -5.947,1.558 -9.374,1.558 -3.023,0 -5.778,-0.403 -8.264,-1.206 -2.487,-0.804 -4.636,-1.957 -6.451,-3.463 -1.812,-1.507 -3.209,-3.332 -4.181,-5.473 -0.974,-2.142 -1.46,-4.553 -1.46,-7.23 0,-4.418 1.46,-8.032 4.384,-10.843 2.921,-2.812 6.801,-4.687 11.64,-5.623 l 6.55,-1.106 c 2.283,-0.4 4.398,-1.07 6.35,-2.007 1.946,-0.938 3.644,-2.125 5.089,-3.564 1.444,-1.441 2.57,-3.08 3.376,-4.921 0.806,-1.841 1.209,-3.832 1.209,-5.974 0,-2.476 -0.538,-4.804 -1.612,-6.977 -1.075,-2.176 -2.555,-4.069 -4.435,-5.674 -1.881,-1.607 -4.082,-2.879 -6.602,-3.817 -2.518,-0.938 -5.19,-1.404 -8.011,-1.404 -3.023,0 -5.829,0.535 -8.416,1.607 -2.586,1.069 -4.821,2.474 -6.701,4.215 -0.74,0.669 -1.412,1.29 -2.015,1.859 -0.606,0.566 -1.177,1.187 -1.715,1.858 l -0.906,-0.603 c 0.469,-0.669 1.024,-1.307 1.663,-1.907 0.638,-0.604 1.327,-1.273 2.067,-2.01 1.946,-1.808 4.264,-3.298 6.953,-4.467 2.686,-1.173 5.71,-1.759 9.07,-1.759 3.224,0 6.182,0.555 8.868,1.658 2.687,1.104 4.99,2.56 6.905,4.367 1.914,1.808 3.409,3.849 4.484,6.125 1.074,2.277 1.612,4.585 1.612,6.929 0,2.411 -0.469,4.619 -1.41,6.626 -0.942,2.01 -2.217,3.766 -3.829,5.273 -1.615,1.504 -3.463,2.76 -5.544,3.764 -2.083,1.006 -4.267,1.672 -6.55,2.01 z" /></g><g
           transform="translate(999.3566,1073.5092)"
           id="g34"><path
             id="path36"
             style="fill:#FFFFFF;fill-opacity:1;fill-rule:nonzero;stroke:none"
             d="m 0,0 c -4.687,0 -9.156,0.989 -13.279,2.938 -4.095,1.934 -7.732,4.626 -10.802,8.006 -3.063,3.365 -5.505,7.339 -7.256,11.808 -1.756,4.477 -2.645,9.33 -2.645,14.424 0,5.093 0.889,9.96 2.643,14.471 1.751,4.501 4.193,8.492 7.258,11.862 3.06,3.373 6.694,6.081 10.79,8.052 4.128,1.986 8.599,2.992 13.291,2.992 5.041,0 9.82,-1.15 14.195,-3.419 4.337,-2.249 8.14,-5.344 11.305,-9.2 l -0.049,-2.381 -0.806,-0.904 -2.784,0.059 c -2.787,3.407 -6.103,6.12 -9.857,8.071 -7.159,3.71 -15.931,3.867 -23.207,0.374 -3.524,-1.693 -6.64,-4.032 -9.254,-6.948 -2.627,-2.938 -4.735,-6.416 -6.259,-10.336 -1.522,-3.917 -2.291,-8.187 -2.291,-12.693 0,-4.44 0.769,-8.677 2.291,-12.59 1.524,-3.922 3.627,-7.38 6.252,-10.279 2.616,-2.887 5.732,-5.209 9.264,-6.907 7.217,-3.465 15.916,-3.338 23.016,0.281 3.492,1.785 6.56,4.196 9.127,7.173 V 34.942 H 1.307 l -1.832,1.831 v 1.207 l 1.832,1.832 H 23.983 L 25.815,37.98 V 13.679 L 25.39,12.505 C 22.23,8.724 18.447,5.669 14.151,3.424 9.811,1.153 5.048,0 0,0 m 512.728,0.2 h -1.312 l -1.712,1.182 -9.024,23.82 H 469.553 L 460.624,1.39 458.909,0.2 h -1.411 l -1.712,2.479 26.711,70.692 1.712,1.182 h 1.712 l 1.712,-1.179 26.809,-70.692 z m -41.395,29.772 h 27.552 l -13.86,36.373 z M -92.467,0.2 h -1.312 l -1.714,1.182 -9.024,23.82 h -31.13 L -144.571,1.39 -146.285,0.2 h -1.414 l -1.712,2.479 26.706,70.692 1.712,1.182 h 1.717 l 1.712,-1.179 26.809,-70.692 z m -41.397,29.772 h 27.549 l -13.857,36.373 z M -431.549,0.2 h -1.311 l -1.712,1.182 -9.027,23.82 h -31.127 L -483.652,1.39 -485.367,0.2 h -1.414 l -1.712,2.479 26.709,70.692 1.712,1.182 h 1.714 l 1.712,-1.179 26.809,-70.692 z m -41.396,29.772 h 27.549 l -13.858,36.373 z M 391.537,0.3 h -1.209 l -1.832,1.832 v 70.287 l 1.832,1.831 h 1.209 l 1.831,-1.831 V 2.132 Z m -67.068,0 h -36.08 l -1.831,1.832 v 70.287 l 1.831,1.831 h 1.207 l 1.832,-1.831 V 5.17 h 33.041 l 1.832,-1.831 V 2.132 Z m -132.581,0 c -3.456,0 -6.763,0.66 -9.833,1.954 -3.055,1.29 -5.752,3.053 -8.016,5.239 -2.278,2.196 -4.105,4.801 -5.439,7.742 -1.343,2.97 -2.024,6.196 -2.024,9.591 v 47.593 l 1.831,1.831 h 1.207 l 1.832,-1.831 V 24.826 c 0,-2.679 0.525,-5.236 1.56,-7.596 1.038,-2.376 2.494,-4.476 4.33,-6.247 1.844,-1.776 4.045,-3.204 6.541,-4.245 4.953,-2.081 11.066,-2.081 16.021,-0.002 2.501,1.045 4.721,2.476 6.604,4.259 1.864,1.768 3.356,3.871 4.428,6.252 1.062,2.362 1.602,4.912 1.602,7.579 v 47.593 l 1.832,1.831 h 1.209 l 1.831,-1.831 V 24.826 c 0,-3.39 -0.683,-6.614 -2.024,-9.589 -1.348,-2.965 -3.219,-5.573 -5.564,-7.764 C 207.494,5.295 204.771,3.541 201.723,2.254 198.653,0.96 195.343,0.3 191.888,0.3 m -94.08,0 H 96.6 L 94.768,2.132 V 72.419 L 96.6,74.25 h 1.208 L 99.64,72.419 V 2.132 Z m -320.437,0 h -1.209 l -1.831,1.832 v 67.251 h -23.666 l -1.832,1.831 v 1.205 l 1.832,1.831 h 51.901 l 1.832,-1.831 v -1.205 l -1.832,-1.831 h -23.363 V 2.132 Z m -92.369,0 h -1.207 l -1.519,0.809 -42.608,63.209 V 2.132 L -362.163,0.3 h -1.207 l -1.832,1.832 v 70.287 l 1.832,1.831 h 1.207 l 1.519,-0.806 42.608,-63.206 v 62.181 l 1.831,1.831 h 1.207 l 1.832,-1.831 V 2.132 Z m -256.691,0 c -3.595,0 -6.895,0.643 -9.801,1.913 -2.865,1.245 -5.378,2.862 -7.466,4.804 -0.777,0.769 -1.456,1.428 -2.083,2.022 -0.716,0.674 -1.361,1.412 -1.903,2.186 l 0.486,2.576 0.906,0.604 2.447,-0.381 c 0.482,-0.604 0.999,-1.165 1.534,-1.666 0.601,-0.567 1.265,-1.177 1.993,-1.839 1.724,-1.597 3.795,-2.897 6.172,-3.881 4.555,-1.885 10.343,-1.946 15.088,-0.178 2.308,0.86 4.342,2.034 6.052,3.495 1.683,1.436 3.024,3.148 3.981,5.089 0.945,1.91 1.421,3.984 1.421,6.167 0,1.881 -0.354,3.642 -1.052,5.241 -0.708,1.617 -1.715,3.085 -2.992,4.357 -1.29,1.285 -2.833,2.365 -4.592,3.21 -1.79,0.862 -3.763,1.484 -5.871,1.853 l -6.538,1.107 c -5.212,1.006 -9.437,3.057 -12.604,6.108 -3.283,3.155 -4.946,7.246 -4.946,12.162 0,2.933 0.547,5.62 1.624,7.989 1.082,2.379 2.655,4.44 4.677,6.123 1.981,1.646 4.355,2.923 7.058,3.798 2.66,0.859 5.63,1.294 8.829,1.294 3.62,0 6.988,-0.562 10.004,-1.671 3.057,-1.123 5.788,-2.869 8.118,-5.187 v -2.599 l -0.806,-0.801 h -2.584 c -1.751,1.739 -3.9,3.085 -6.391,3.993 -2.538,0.926 -5.347,1.395 -8.341,1.395 -2.611,0 -5.031,-0.357 -7.192,-1.062 -2.12,-0.694 -3.95,-1.681 -5.437,-2.929 -1.47,-1.226 -2.633,-2.725 -3.456,-4.454 -0.818,-1.715 -1.231,-3.695 -1.231,-5.889 0,-1.98 0.374,-3.732 1.114,-5.202 0.764,-1.526 1.78,-2.867 3.016,-3.981 1.258,-1.135 2.711,-2.078 4.313,-2.801 1.62,-0.73 3.271,-1.226 4.907,-1.465 l 6.396,-1.112 c 2.421,-0.356 4.802,-1.089 7.034,-2.166 2.24,-1.079 4.257,-2.449 5.996,-4.074 1.773,-1.656 3.199,-3.617 4.24,-5.832 1.05,-2.244 1.582,-4.735 1.582,-7.405 0,-2.603 -0.603,-5.199 -1.788,-7.71 -1.169,-2.474 -2.813,-4.721 -4.884,-6.675 -2.066,-1.951 -4.577,-3.544 -7.464,-4.731 -2.901,-1.189 -6.118,-1.795 -9.566,-1.795" /></g><g
           transform="translate(1500.4822,773.1934)"
           id="g38"><path
             id="path40"
             style="fill:#FFFFFF;fill-opacity:1;fill-rule:nonzero;stroke:none"
             d="m 0,0 h -4.191 c -5.588,0 -10.595,3.461 -12.566,8.69 l -27.026,71.585 h -89.07 L -159.574,8.731 C -161.535,3.483 -166.551,0 -172.156,0 h -4.514 c -4.408,0 -8.536,2.164 -11.044,5.788 -2.51,3.625 -3.079,8.25 -1.526,12.375 l 85.433,226.966 c 1.971,5.237 6.98,8.702 12.571,8.702 h 5.48 c 5.588,0 10.592,-3.458 12.563,-8.687 L 12.566,18.18 C 14.124,14.053 13.559,9.422 11.049,5.796 8.541,2.166 4.413,0 0,0 m -121.501,110.687 h 66.252 l -33.333,87.792 z M -212.283,0.325 h -3.869 c -7.417,0 -13.432,6.015 -13.432,13.432 v 225.674 c 0,7.418 6.015,13.433 13.432,13.433 h 3.869 c 7.417,0 13.432,-6.015 13.432,-13.433 V 13.757 c 0,-7.417 -6.015,-13.432 -13.432,-13.432 m -37.533,0 h -4.191 c -6.003,0 -11.279,3.986 -12.92,9.759 L -316.39,184.111 -367.165,9.996 c -1.673,-5.732 -6.927,-9.671 -12.895,-9.671 h -4.514 c -5.969,0 -11.224,3.939 -12.895,9.671 L -448.242,184.111 -497.71,10.084 c -1.641,-5.773 -6.917,-9.759 -12.92,-9.759 h -4.191 c -4.213,0 -8.181,1.973 -10.719,5.334 -2.537,3.363 -3.353,7.717 -2.2,11.772 l 64.158,225.671 c 1.639,5.776 6.917,9.762 12.92,9.762 h 4.511 c 5.971,0 11.227,-3.944 12.895,-9.679 l 50.939,-174.933 50.936,174.933 c 1.671,5.735 6.924,9.679 12.898,9.679 h 4.513 c 6.003,0 11.278,-3.986 12.92,-9.762 l 64.154,-225.671 c 1.152,-4.055 0.337,-8.409 -2.201,-11.772 -2.54,-3.361 -6.509,-5.334 -10.719,-5.334 m -569.203,0 h -60.61 c -7.42,0 -13.433,6.015 -13.433,13.432 v 225.674 c 0,7.418 6.013,13.433 13.433,13.433 h 61.255 c 15.911,0 31.19,-3.419 45.412,-10.162 14.006,-6.648 26.374,-15.831 36.761,-27.298 10.301,-11.388 18.534,-24.869 24.476,-40.078 5.959,-15.266 8.981,-31.661 8.981,-48.733 0,-17.076 -3.022,-33.474 -8.981,-48.731 -5.949,-15.242 -14.258,-28.748 -24.689,-40.136 -10.477,-11.44 -22.884,-20.606 -36.871,-27.241 -14.219,-6.743 -29.605,-10.16 -45.734,-10.16 m -43.309,30.733 h 45.243 c 11.191,0.179 21.597,2.677 31.599,7.63 10.113,5.009 19.047,11.831 26.552,20.269 7.578,8.511 13.674,18.725 18.119,30.357 4.44,11.628 6.692,24.169 6.692,37.279 0,13.298 -2.293,25.92 -6.816,37.511 -4.55,11.657 -10.766,21.954 -18.474,30.607 -7.583,8.504 -16.585,15.306 -26.752,20.207 -9.933,4.785 -20.772,7.212 -32.209,7.212 h -43.954 z M -548.126,0.647 h -128.313 c -7.417,0 -13.432,6.013 -13.432,13.433 v 225.351 c 0,7.418 6.015,13.433 13.432,13.433 h 128.635 c 7.42,0 13.433,-6.015 13.433,-13.433 v -3.868 c 0,-7.42 -6.013,-13.433 -13.433,-13.433 h -111.011 v -75.012 h 66.198 c 7.42,0 13.432,-6.013 13.432,-13.432 v -3.869 c 0,-7.417 -6.012,-13.433 -13.432,-13.433 h -66.198 V 31.381 h 110.689 c 7.42,0 13.433,-6.015 13.433,-13.433 V 14.08 c 0,-7.42 -6.013,-13.433 -13.433,-13.433" /></g></g></g></g></svg>