<?xml version="1.0" encoding="utf-8"?>
<!-- Generator: Adobe Illustrator 23.1.1, SVG Export Plug-In . SVG Version: 6.00 Build 0)  -->
<svg version="1.1" id="bf99bf67-d303-4166-b372-cbd9ab44264c"
	 xmlns="http://www.w3.org/2000/svg" xmlns:xlink="http://www.w3.org/1999/xlink" x="0px" y="0px" viewBox="0 0 152.6 113.6"
	 style="enable-background:new 0 0 152.6 113.6;" xml:space="preserve">
<style type="text/css">
	.st0{fill:#FFFFFF;}
</style>
<title>Vertical-Codermine-Logo-Black</title>
<path class="st0" d="M25.5,98.2c-1.3,0.7-2.7,1-4.2,1c-4.3,0-7.4-2.9-7.4-6.9c0-4.2,3.4-7,7.5-7c1.3,0,2.6,0.3,3.8,0.9v3.2
	c-1.1-0.8-2.4-1.2-3.7-1.2c-2.3-0.1-4.2,1.7-4.3,3.9c-0.1,2.3,1.7,4.2,3.9,4.3c0.1,0,0.3,0,0.4,0c1.4,0,2.8-0.5,3.9-1.3V98.2z"/>
<path class="st0" d="M33.6,85.3c3.8-0.2,7.1,2.8,7.2,6.7c0.2,3.8-2.8,7.1-6.7,7.2c0,0,0,0,0,0c-0.2,0-0.4,0-0.5,0
	c-3.8,0.1-7.1-2.9-7.2-6.7c-0.1-3.8,2.8-7.1,6.7-7.2C33.3,85.3,33.4,85.3,33.6,85.3z M33.6,96.4c2.3,0.1,4.2-1.7,4.2-4
	c0.1-2.3-1.7-4.2-4-4.2c-2.3-0.1-4.2,1.7-4.2,4c0,0,0,0.1,0,0.1c-0.1,2.2,1.6,4,3.8,4.1C33.5,96.4,33.6,96.4,33.6,96.4z"/>
<path class="st0" d="M51.6,98.1c-1,0.7-2.3,1.1-3.5,1.1c-3.5,0-6.4-2.8-6.4-6.3c0-0.1,0-0.3,0-0.4c-0.1-3.9,3-7.1,6.9-7.2
	c1,0,2,0.2,3,0.6l0.1,0v-4.4l3.3-3.3v20.7h-3.2L51.6,98.1L51.6,98.1z M51.7,88.8c-0.8-0.4-1.8-0.7-2.7-0.7c-2.5,0-4,1.9-4,4.3
	c0,2.3,1.4,4.1,3.8,4.1c1,0,2-0.3,2.9-0.9V88.8z"/>
<path class="st0" d="M59.9,93.2c0.4,2.2,2.2,3.4,4.4,3.4c1.6,0,3.2-0.6,4.5-1.5v3c-1.5,0.8-3.2,1.3-4.9,1.2c-4.3,0-7.4-2.8-7.4-6.9
	c-0.1-3.7,2.8-6.8,6.5-7c0.1,0,0.2,0,0.3,0c3.3,0,6.2,2.2,6.2,6.5c0,0.4,0,0.9-0.1,1.3L59.9,93.2z M66.5,90.9
	c-0.1-1.7-1.5-3-3.2-2.9c-1.7,0-3.2,1.2-3.4,2.9H66.5z"/>
<path class="st0" d="M71.4,85.6h3.2v1.9l0.1,0c0.9-1.3,2.3-2,3.9-2c0.3,0,0.6,0,0.9,0.1v3.1c-0.4-0.1-0.7-0.1-1.1-0.1
	c-1.5,0-2.9,0.7-3.7,2v8.4h-3.3V85.6z"/>
<path class="st0" d="M99.2,91.1c0.1-0.8-0.1-1.6-0.6-2.2c-0.4-0.5-1.1-0.7-1.7-0.7c-1.3,0.1-2.5,0.6-3.3,1.6c0,0.3,0,0.5,0,0.8v8.3
	h-3.3v-7.8c0.1-0.8-0.1-1.6-0.5-2.2c-0.4-0.5-1.1-0.7-1.7-0.7c-1.3,0.1-2.5,0.7-3.3,1.6v9.1h-3.3V85.6h3.2V87l0.1,0
	c1.1-1.1,2.7-1.7,4.3-1.7c1.6-0.1,3.1,0.7,4,2.1c1.3-1.3,3-2,4.9-2.1c1.3-0.1,2.6,0.4,3.5,1.4c0.9,1.1,1.3,2.5,1.2,3.9v8.3h-3.3
	V91.1z"/>
<rect x="104.9" y="85.6" class="st0" width="3.3" height="13.3"/>
<path class="st0" d="M110.7,85.6h3.2V87l0.1,0c1.2-1.1,2.8-1.7,4.4-1.8c1.3-0.1,2.6,0.5,3.5,1.4c0.8,0.8,1.1,1.9,1.1,3.9v8.3h-3.3
	v-7.7c0.1-0.8-0.1-1.6-0.5-2.3c-0.4-0.5-1.1-0.8-1.8-0.7c-1.3,0.1-2.6,0.7-3.5,1.7v9h-3.3L110.7,85.6z"/>
<path class="st0" d="M128,93.2c0.4,2.2,2.2,3.4,4.4,3.4c1.6,0,3.2-0.6,4.5-1.5v3c-1.5,0.8-3.2,1.3-4.9,1.2c-4.3,0-7.4-2.8-7.4-6.9
	c-0.1-3.7,2.8-6.8,6.5-7c0.1,0,0.2,0,0.3,0c3.3,0,6.2,2.2,6.2,6.5c0,0.4,0,0.9-0.1,1.3L128,93.2z M134.6,90.9
	c-0.1-1.7-1.5-3-3.2-2.9c-1.7,0-3.2,1.2-3.4,2.9H134.6z"/>
<rect x="105" y="79.6" transform="matrix(0.7071 -0.7071 0.7071 0.7071 -26.2019 99.1394)" class="st0" width="3.2" height="3.2"/>
<path class="st0" d="M90.6,18.8H61.1L43.7,36.2l32.1,32.1L108,36.2L90.6,18.8z M50.1,36.2L63,23.4h25.7l12.9,12.9L75.8,61.9
	L50.1,36.2z"/>
<polygon class="st0" points="72.6,42.6 66.2,42.6 59.7,36.2 66.2,29.8 72.6,29.8 66.2,36.2 "/>
<polygon class="st0" points="91.9,36.2 85.5,42.6 79,42.6 85.5,36.2 79,29.8 85.5,29.8 "/>
</svg>
