<?xml version="1.0" encoding="utf-8"?>
<!-- Generator: Adobe Illustrator 23.1.1, SVG Export Plug-In . SVG Version: 6.00 Build 0)  -->
<svg version="1.1" id="Layer_1" xmlns="http://www.w3.org/2000/svg" xmlns:xlink="http://www.w3.org/1999/xlink" x="0px" y="0px"
	 viewBox="0 0 90 90" style="enable-background:new 0 0 90 90;" xml:space="preserve">
<style type="text/css">
	.st0{fill:#FFFFFF;}
	.st1{enable-background:new    ;}
</style>
<polygon class="st0" points="51.55,21.28 48.17,24.66 44.78,21.28 "/>
<polygon class="st0" points="66.28,49.6 62.89,46.22 66.28,42.83 "/>
<polygon class="st0" points="23.23,36.06 26.62,39.45 23.23,42.83 "/>
<g>
	<polygon class="st0" points="55.53,32.03 52.15,35.41 59.51,42.83 52.15,50.2 55.53,53.58 66.28,42.83 	"/>
	
		<rect x="46.26" y="39.09" transform="matrix(0.7071 -0.7071 0.7071 0.7071 -15.6317 47.8689)" class="st0" width="7.42" height="7.42"/>
</g>
<g>
	<polygon class="st0" points="44.78,28.05 52.15,35.41 55.53,32.03 44.78,21.28 33.98,32.03 37.36,35.41 	"/>
	
		<rect x="41.03" y="33.88" transform="matrix(0.7071 -0.7071 0.7071 0.7071 -13.4802 42.6466)" class="st0" width="7.42" height="7.42"/>
</g>
<g>
	
		<rect x="35.81" y="39.12" transform="matrix(0.7071 -0.7071 0.7071 0.7071 -18.707 40.4906)" class="st0" width="7.42" height="7.42"/>
	<polygon class="st0" points="30,42.83 37.36,35.41 33.98,32.03 23.23,42.83 33.98,53.58 37.36,50.2 	"/>
</g>
<g class="st1">
	<path class="st0" d="M26.68,57.74c0-0.12,0.06-0.18,0.18-0.18h0.24c0.12,0,0.18,0.06,0.18,0.18v4.63c0,0,0.71-0.59,1.84-0.59
		c1.66,0,2.85,1.31,2.85,3.09c0,1.72-1.19,3.09-2.67,3.09c-1.13,0-1.84-0.65-2.02-0.89l-0.06,0.59c0,0.12-0.06,0.18-0.18,0.18h-0.12
		c-0.12,0-0.18-0.06-0.18-0.18v-9.92H26.68z M29.23,67.41c1.25,0,2.14-1.13,2.14-2.49s-0.95-2.43-2.32-2.43
		c-1.07,0-1.72,0.59-1.72,0.59v3.27C27.33,66.41,27.98,67.41,29.23,67.41z"/>
	<path class="st0" d="M34.28,62.13c0-0.12,0.06-0.18,0.18-0.18h0.24c0.12,0,0.18,0.06,0.18,0.18v3.15c0,1.37,0.65,2.08,1.72,2.08
		c1.19,0,1.9-0.95,1.96-1.01v-4.16c0-0.12,0.06-0.18,0.18-0.18h0.24c0.12,0,0.18,0.06,0.18,0.18v5.46c0,0.12-0.06,0.18-0.18,0.18
		h-0.18c-0.12,0-0.18-0.06-0.18-0.18l-0.06-0.59c-0.18,0.18-0.89,0.89-2.02,0.89c-1.66,0-2.38-1.01-2.38-2.67v-3.15H34.28z"/>
	<path class="st0" d="M41.88,58.63c0-0.3,0.24-0.53,0.47-0.53c0.24,0,0.48,0.24,0.48,0.53c0,0.24-0.24,0.48-0.48,0.48
		C42.11,59.1,41.88,58.86,41.88,58.63z M42.05,62.13c0-0.12,0.06-0.18,0.18-0.18h0.3c0.12,0,0.18,0.06,0.18,0.18v5.52
		c0,0.12-0.06,0.18-0.18,0.18h-0.3c-0.12,0-0.18-0.06-0.18-0.18V62.13z"/>
	<path class="st0" d="M45.5,57.74c0-0.12,0.06-0.18,0.18-0.18h0.24c0.12,0,0.18,0.06,0.18,0.18v9.92c0,0.12-0.06,0.18-0.18,0.18
		h-0.3c-0.12,0-0.18-0.06-0.18-0.18v-9.92H45.5z"/>
	<path class="st0" d="M51.43,61.83c1.13,0,1.78,0.59,1.78,0.59V57.8c0-0.12,0.06-0.18,0.18-0.18h0.24c0.06,0,0.18,0.06,0.18,0.18
		v9.86c0,0.12-0.06,0.18-0.18,0.18h-0.12c-0.12,0-0.18-0.06-0.18-0.18l-0.06-0.53c-0.18,0.18-0.89,0.83-2.02,0.83
		c-1.54,0-2.73-1.37-2.73-3.09C48.58,63.2,49.77,61.83,51.43,61.83z M51.32,67.41c1.25,0,1.9-1.01,1.96-1.07v-3.27
		c0,0-0.65-0.59-1.72-0.59c-1.37,0-2.32,1.07-2.32,2.43C49.18,66.29,50.07,67.41,51.32,67.41z"/>
	<path class="st0" d="M59.21,61.83c1.66,0,2.97,1.37,2.97,3.09c0,1.72-1.31,3.09-2.97,3.09s-2.97-1.37-2.97-3.09
		C56.24,63.2,57.55,61.83,59.21,61.83z M59.21,67.36c1.31,0,2.32-1.13,2.32-2.49c0-1.37-1.01-2.43-2.32-2.43
		c-1.31,0-2.32,1.13-2.32,2.43C56.9,66.29,57.91,67.36,59.21,67.36z"/>
</g>
</svg>
