<?xml version="1.0" encoding="utf-8"?>
<!-- Generator: Adobe Illustrator 23.1.1, SVG Export Plug-In . SVG Version: 6.00 Build 0)  -->
<svg version="1.1" id="Layer_1" xmlns="http://www.w3.org/2000/svg" xmlns:xlink="http://www.w3.org/1999/xlink" x="0px" y="0px"
	 viewBox="0 0 90 90" style="enable-background:new 0 0 90 90;" xml:space="preserve">
<style type="text/css">
	.st0{fill:#FFFFFF;}
	.st1{enable-background:new    ;}
</style>
<polygon class="st0" points="54.65,9.04 49.58,14.11 44.51,9.04 "/>
<polygon class="st0" points="76.71,51.48 71.64,46.41 76.71,41.33 "/>
<polygon class="st0" points="12.21,31.19 17.28,36.26 12.21,41.33 "/>
<g>
	<polygon class="st0" points="60.61,25.14 55.54,30.21 66.57,41.33 55.54,52.37 60.61,57.44 76.71,41.33 	"/>
	
		<rect x="46.71" y="35.73" transform="matrix(0.7071 -0.7071 0.7071 0.7071 -13.8866 49.0554)" class="st0" width="11.12" height="11.12"/>
</g>
<g>
	<polygon class="st0" points="44.51,19.18 55.54,30.21 60.61,25.14 44.51,9.04 28.32,25.14 33.39,30.21 	"/>
	
		<rect x="38.88" y="27.93" transform="matrix(0.7071 -0.7071 0.7071 0.7071 -10.6629 41.2305)" class="st0" width="11.12" height="11.12"/>
</g>
<g>
	
		<rect x="31.06" y="35.76" transform="matrix(0.7071 -0.7071 0.7071 0.7071 -18.4946 38)" class="st0" width="11.12" height="11.12"/>
	<polygon class="st0" points="22.35,41.33 33.39,30.21 28.32,25.14 12.21,41.33 28.32,57.44 33.39,52.37 	"/>
</g>
<g class="st1">
	<path class="st0" d="M17.37,63.67c0-0.18,0.09-0.27,0.27-0.27H18c0.18,0,0.27,0.09,0.27,0.27v6.94c0,0,1.07-0.89,2.76-0.89
		c2.49,0,4.27,1.96,4.27,4.63c0,2.58-1.78,4.63-4,4.63c-1.69,0-2.76-0.98-3.02-1.33l-0.09,0.89c0,0.18-0.09,0.27-0.27,0.27h-0.18
		c-0.18,0-0.27-0.09-0.27-0.27V63.67H17.37z M21.2,78.17c1.87,0,3.2-1.69,3.2-3.74c0-2.05-1.42-3.65-3.47-3.65
		c-1.6,0-2.58,0.89-2.58,0.89v4.89C18.35,76.65,19.33,78.17,21.2,78.17z"/>
	<path class="st0" d="M28.76,70.25c0-0.18,0.09-0.27,0.27-0.27h0.36c0.18,0,0.27,0.09,0.27,0.27v4.72c0,2.05,0.98,3.11,2.58,3.11
		c1.78,0,2.85-1.42,2.94-1.51v-6.23c0-0.18,0.09-0.27,0.27-0.27h0.36c0.18,0,0.27,0.09,0.27,0.27v8.18c0,0.18-0.09,0.27-0.27,0.27
		h-0.27c-0.18,0-0.27-0.09-0.27-0.27l-0.09-0.89c-0.27,0.27-1.33,1.33-3.02,1.33c-2.49,0-3.56-1.51-3.56-4v-4.72H28.76z"/>
	<path class="st0" d="M40.15,65c0-0.44,0.36-0.8,0.71-0.8s0.71,0.36,0.71,0.8c0,0.36-0.36,0.71-0.71,0.71S40.15,65.36,40.15,65z
		 M40.41,70.25c0-0.18,0.09-0.27,0.27-0.27h0.44c0.18,0,0.27,0.09,0.27,0.27v8.27c0,0.18-0.09,0.27-0.27,0.27h-0.44
		c-0.18,0-0.27-0.09-0.27-0.27V70.25z"/>
	<path class="st0" d="M45.57,63.67c0-0.18,0.09-0.27,0.27-0.27h0.36c0.18,0,0.27,0.09,0.27,0.27v14.86c0,0.18-0.09,0.27-0.27,0.27
		h-0.44c-0.18,0-0.27-0.09-0.27-0.27V63.67H45.57z"/>
	<path class="st0" d="M54.47,69.8c1.69,0,2.67,0.89,2.67,0.89v-6.94c0-0.18,0.09-0.27,0.27-0.27h0.36c0.09,0,0.27,0.09,0.27,0.27
		v14.77c0,0.18-0.09,0.27-0.27,0.27h-0.18c-0.18,0-0.27-0.09-0.27-0.27l-0.09-0.8c-0.27,0.27-1.33,1.25-3.02,1.25
		c-2.31,0-4.09-2.05-4.09-4.63C50.2,71.85,51.98,69.8,54.47,69.8z M54.29,78.17c1.87,0,2.85-1.51,2.94-1.6v-4.89
		c0,0-0.98-0.89-2.58-0.89c-2.05,0-3.47,1.6-3.47,3.65C51.09,76.48,52.43,78.17,54.29,78.17z"/>
	<path class="st0" d="M66.13,69.8c2.49,0,4.45,2.05,4.45,4.63c0,2.58-1.96,4.63-4.45,4.63c-2.49,0-4.45-2.05-4.45-4.63
		S63.63,69.8,66.13,69.8z M66.13,78.08c1.96,0,3.47-1.69,3.47-3.74c0-2.05-1.51-3.65-3.47-3.65c-1.96,0-3.47,1.69-3.47,3.65
		C62.66,76.48,64.17,78.08,66.13,78.08z"/>
</g>
</svg>
