<?xml version="1.0" encoding="utf-8"?>
<!-- Generator: Adobe Illustrator 23.1.1, SVG Export Plug-In . SVG Version: 6.00 Build 0)  -->
<svg version="1.1" id="Layer_1" xmlns="http://www.w3.org/2000/svg" xmlns:xlink="http://www.w3.org/1999/xlink" x="0px" y="0px"
	 viewBox="0 0 478.72 252.11" style="enable-background:new 0 0 478.72 252.11;" xml:space="preserve">
<style type="text/css">
	.st0{clip-path:url(#SVGID_2_);}
	.st1{clip-path:url(#SVGID_4_);fill:#FFFFFF;}
</style>
<g>
	<defs>
		<rect id="SVGID_1_" x="-58.28" y="-294.89" width="595.28" height="841.89"/>
	</defs>
	<clipPath id="SVGID_2_">
		<use xlink:href="#SVGID_1_"  style="overflow:visible;"/>
	</clipPath>
	<g class="st0">
		<defs>
			<rect id="SVGID_3_" x="-58.28" y="-294" width="595" height="841"/>
		</defs>
		<clipPath id="SVGID_4_">
			<use xlink:href="#SVGID_3_"  style="overflow:visible;"/>
		</clipPath>
		<path class="st1" d="M296.15,161.52h-10.62v-52.05c-0.15-0.1-0.29-0.2-0.44-0.31c-0.43,0.39-0.95,0.71-1.29,1.17
			c-3.93,5.46-7.84,10.95-11.76,16.43c-0.25,0.35-0.51,0.68-0.89,1.18c-1.93-2.7-3.81-5.32-5.68-7.94
			c-2.29-3.22-4.57-6.46-6.88-9.66c-0.35-0.48-0.89-0.83-1.33-1.24c-0.14,0.09-0.29,0.19-0.43,0.28v52.13h-10.67V89.77
			c3.42,0,6.77-0.04,10.12,0.05c0.43,0.01,0.95,0.6,1.26,1.04c3.94,5.53,7.84,11.08,11.76,16.62c1.25,1.77,2.41,1.77,3.68-0.03
			c3.86-5.45,7.74-10.89,11.53-16.39c0.7-1.02,1.43-1.36,2.63-1.33c2.98,0.08,5.95,0.03,9.01,0.03V161.52z"/>
		<path class="st1" d="M354.96,89.93c6.84,0,13.64-0.66,20.27,0.14c12.48,1.51,20.35,16.8,10.88,27.92c-0.1,0.12-0.17,0.27,0.18,0
			c1.48,1.74,2.98,3.46,4.43,5.22c10.03,12.14,5.64,29.3-8.58,36.2c-3.12,1.52-6.4,2.26-9.9,2.21c-5.71-0.08-11.43-0.02-17.29-0.02
			V89.93z M365.59,151.82c3.58-0.21,7.08,0.06,10.33-0.71c6.96-1.65,10.84-8.95,9.19-16.39c-1.17-5.29-4.25-8.85-9.6-9.98
			c-2.31-0.49-4.77-0.32-7.16-0.38c-2.14-0.05-2.76,0.61-2.76,2.73c0,7.59,0,15.18,0,22.77
			C365.59,150.39,365.59,150.91,365.59,151.82 M365.59,99.84c0,4.26-0.05,8.32,0.03,12.37c0.03,1.29,0.83,2.15,2.27,2.15
			c1.76,0,3.53,0.06,5.29-0.02c3.21-0.14,5.56-2.16,6.21-5.23c1.01-4.8-1.17-8.7-5.46-9.21C371.25,99.58,368.51,99.84,365.59,99.84"
			/>
		<path class="st1" d="M171.2,89.76c3.12,0,6.05,0.03,8.99-0.02c0.97-0.02,1.1,0.53,1.28,1.26c1.85,7.18,3.73,14.36,5.59,21.54
			c4.16,16.07,8.32,32.13,12.48,48.2c0.05,0.2,0.09,0.41,0.19,0.86c-3.42,0-6.75,0.03-10.07-0.05c-0.3-0.01-0.73-0.66-0.84-1.08
			c-0.78-2.83-1.53-5.67-2.19-8.53c-0.23-0.97-0.66-1.26-1.63-1.25c-5.88,0.04-11.76,0.05-17.64,0c-1.02-0.01-1.39,0.38-1.61,1.29
			c-0.76,3.16-1.58,6.31-2.4,9.54h-10.7C158.82,137.62,164.99,113.76,171.2,89.76 M176.26,112.1c-0.21,0.44-0.27,0.54-0.29,0.64
			c-2.23,8.63-4.46,17.26-6.66,25.89c-0.32,1.27,0.4,2.07,1.86,2.09c3.21,0.03,6.42,0.01,9.62,0.01c2.3,0,2.77-0.59,2.21-2.78
			c-1.7-6.61-3.41-13.23-5.12-19.84C177.38,116.2,176.85,114.31,176.26,112.1"/>
		<path class="st1" d="M312.54,161.55h-10.69c6.2-23.94,12.37-47.8,18.57-71.78c3.1,0,6.14-0.04,9.17,0.05
			c0.38,0.01,0.94,0.73,1.07,1.21c2.33,8.82,4.62,17.65,6.91,26.49c3.72,14.36,7.44,28.72,11.15,43.09
			c0.07,0.25,0.13,0.51,0.24,0.99c-3.45,0-6.78,0.03-10.11-0.05c-0.29-0.01-0.71-0.67-0.83-1.1c-0.75-2.73-1.54-5.45-2.1-8.22
			c-0.27-1.32-0.87-1.55-2.06-1.54c-5.67,0.05-11.33,0.07-17-0.01c-1.29-0.02-1.72,0.44-1.99,1.63
			C314.19,155.37,313.34,158.41,312.54,161.55 M325.42,111.9c-0.38,1.34-0.64,2.19-0.85,3.05c-1.96,7.71-3.91,15.41-5.88,23.12
			c-0.5,1.96,0,2.64,2.09,2.65c3.1,0.01,6.2,0.01,9.3,0c2.2,0,2.7-0.61,2.17-2.69c-1.71-6.67-3.43-13.33-5.16-19.99
			C326.58,116.15,326.05,114.26,325.42,111.9"/>
		<path class="st1" d="M134.54,161.56h-10.64v-71.7c0.39-0.04,0.75-0.1,1.11-0.1c5.61,0,11.22-0.05,16.83,0.01
			c7.65,0.08,14.15,4.94,16.48,12.22c2.27,7.1-0.3,14.89-6.4,19.36c-2.98,2.17-6.34,3.26-10.02,3.32c-1.44,0.02-2.88,0-4.33,0
			c-2.5,0-3.03,0.52-3.03,2.96c0,10.63,0,21.27,0,31.91V161.56z M134.54,99.8c0,4.4-0.06,8.61,0.04,12.82
			c0.03,1.22,0.92,1.99,2.26,1.99c1.71,0,3.42,0.03,5.13-0.01c3.92-0.09,6.92-2.97,7.12-6.8c0.21-4.14-2.46-7.6-6.45-7.96
			C140.05,99.61,137.42,99.8,134.54,99.8"/>
		<path class="st1" d="M204.4,161.54V89.86h10.68v1.85c0,18.92,0,37.84,0,56.77c0,2.43,0.71,3.16,3.1,3.16c6.47,0,12.94,0,19.4,0
			h2.01v9.91H204.4z"/>
		<path class="st1" d="M450.31,161.55h-10.59v-2.07c0-18.82,0-37.65,0-56.47c0-2.51-0.73-3.25-3.21-3.25c-3.1,0-6.2,0-9.43,0v-9.88
			h35.73v9.88h-6.04c-1.18,0-2.35,0-3.53,0c-2.15,0.01-2.92,0.79-2.92,3c0,18.93,0,37.86,0,56.79V161.55z"/>
		<path class="st1" d="M420.45,151.74v9.77h-18.04v-9.73c0.41-0.05,0.81-0.12,1.21-0.15c1.38-0.11,2.42-1.09,2.42-2.43
			c0.01-16.2,0.01-32.39,0-48.59c0-0.21-0.06-0.41-0.12-0.78c-1.15-0.05-2.29-0.11-3.52-0.16v-9.79h18.01v9.85h-3.7
			c0,0.86,0,1.54,0,2.22c0,15.23,0.03,30.47-0.03,45.7C416.68,150.25,416.84,151.63,420.45,151.74"/>
		<polygon class="st1" points="16.57,120.32 16.57,110.62 28.08,110.62 28.08,106.67 40.08,106.67 40.08,104.12 50.93,104.12 
			50.93,101.99 56.27,101.99 56.27,107.25 47.07,107.25 47.07,111.15 37.95,111.15 37.95,116.29 25.86,116.29 25.86,120.32 		"/>
		<polygon class="st1" points="22.16,97.47 37.7,97.47 37.7,93.6 46.9,93.6 46.9,91.71 51.42,91.71 51.42,93.6 55.53,93.6 
			55.53,97.47 58.25,97.47 58.25,99.19 63.34,99.19 63.34,92.12 56.27,92.12 56.27,87.85 46.08,87.85 46.08,86.37 39.42,86.37 
			39.42,87.93 28.41,87.93 28.41,95.33 22.16,95.33 		"/>
		<rect x="17.07" y="99.19" class="st1" width="3.7" height="3.7"/>
		<rect x="15.92" y="124.75" class="st1" width="3.53" height="3.53"/>
		<rect x="62.6" y="109.79" class="st1" width="3.78" height="3.78"/>
		<rect x="66.38" y="105.6" class="st1" width="1.73" height="1.73"/>
		<rect x="94.91" y="137" class="st1" width="3.37" height="3.37"/>
		<polygon class="st1" points="74.44,102.89 74.44,97.63 76.66,97.63 76.66,93.44 85.21,93.44 85.21,90.15 92.03,90.15 92.03,93.44 
			104.19,93.44 104.19,104.78 111.51,104.78 111.51,113.16 112.58,113.16 112.58,117.19 114.47,117.19 114.47,123.44 108.39,123.44 
			108.39,114.4 101.56,114.4 101.56,106.46 98.69,106.46 98.69,102.89 94.91,102.89 94.91,97.14 82.18,97.14 82.18,99.19 
			80.03,99.19 80.03,102.89 		"/>
		<polygon class="st1" points="73.86,108.4 87.67,108.4 87.67,114.48 92.36,114.48 92.36,126.52 97.78,126.52 97.78,135.77 
			88.41,135.77 88.41,124.13 82.17,124.13 82.17,115.38 73.86,115.38 		"/>
		<path class="st1" d="M48.22,120.03c0,2.61-2.12,4.73-4.73,4.73s-4.73-2.12-4.73-4.73c0-2.61,2.12-4.73,4.73-4.73
			S48.22,117.42,48.22,120.03"/>
		<path class="st1" d="M56.27,112.55c0,1.52-1.23,2.75-2.75,2.75c-1.52,0-2.75-1.23-2.75-2.75s1.23-2.75,2.75-2.75
			C55.04,109.79,56.27,111.03,56.27,112.55"/>
		<path class="st1" d="M77.64,121.67c0,1.57-1.27,2.84-2.84,2.84c-1.57,0-2.83-1.27-2.83-2.84c0-1.57,1.27-2.84,2.83-2.84
			C76.37,118.84,77.64,120.11,77.64,121.67"/>
		<polygon class="st1" points="61.97,116.75 61.97,124.13 56.17,124.13 56.17,129.03 53.86,129.03 53.86,133.3 52.55,133.3 
			52.55,136.92 48.16,136.92 48.16,138.23 42.03,138.23 42.03,144.92 36.88,144.92 36.88,150.62 33.51,150.62 33.51,165.74 
			37.97,165.74 48.07,165.74 49.92,165.74 49.92,153.69 53.64,153.69 53.64,147.22 56.49,147.22 56.49,138.23 60.55,138.23 
			60.55,130.78 63.18,130.78 63.18,121.58 67.12,121.58 67.12,116.75 		"/>
	</g>
</g>
</svg>
